<svg width="181" height="41" viewBox="0 0 181 41" fill="none" xmlns="http://www.w3.org/2000/svg">
<g id="Calque 1">
<g id="Group">
<g id="Group_2">
<g id="Group_3">
<path id="Vector" d="M10.8653 15.0628H15.3598L16.139 11.2781H11.61L12.8423 5.12195H8.4617L7.22942 11.2781H4.20038L3.42126 15.0628H6.4874L4.7357 23.9478C4.37264 25.7156 4.582 27.107 5.35847 28.0816C6.20649 29.1483 7.70643 29.6897 9.81324 29.6897H12.1321L12.8741 25.9051H10.6798C9.90069 25.9051 9.45018 25.7805 9.22227 25.499C8.98112 25.2039 8.94402 24.6706 9.10037 23.8232L10.868 15.0628H10.8653Z" fill="#2D2B39"/>
<path id="Vector_2" d="M28.6261 11.0724C25.6872 11.0724 23.4744 12.0361 21.887 14.0178L22.0301 11.2754H18.6142L14.9412 29.6897H19.2873L21.1132 20.4257C21.8738 17.1852 24.2668 15.4012 27.8576 15.4012H28.5784L29.4185 11.0724H28.6235H28.6261Z" fill="#2D2B39"/>
<path id="Vector_3" d="M39.5498 10.7312C33.171 10.7312 28.5387 15.7179 28.5387 22.5914C28.5387 27.3561 31.3345 30.1986 36.0199 30.1986C42.3429 30.1986 46.9302 25.1687 46.9302 18.2356C46.9302 13.6063 44.1026 10.7285 39.5498 10.7285V10.7312ZM36.685 26.3788C34.2231 26.3788 32.8106 24.787 32.8106 22.0121C32.8106 18.3953 34.9148 14.5511 38.8157 14.5511C41.2564 14.5511 42.6556 16.0806 42.6556 18.7472C42.6556 22.4994 40.4216 26.3788 36.6824 26.3788H36.685Z" fill="#2D2B39"/>
<path id="Vector_4" d="M62.3721 11.2754L60.1461 22.4399C59.5445 24.8276 57.7901 26.3085 55.5667 26.3085C54.5517 26.3085 53.8097 26.0242 53.3619 25.4665C52.9087 24.9007 52.7789 24.048 52.9882 23.0003L55.2991 11.2727H50.9874L48.6262 23.095C48.2154 25.1796 48.544 26.9636 49.5802 28.2549C50.5978 29.5246 52.2091 30.196 54.239 30.196C56.4731 30.196 58.4421 29.2268 59.7353 27.5132L59.6001 29.6843H63.0505L66.7235 11.27H62.3774L62.3721 11.2754Z" fill="#2D2B39"/>
<path id="Vector_5" d="M83.1302 11.2754L75.5377 24.2726L73.1023 11.2754H68.6873L72.5299 29.6897H76.8813L88.0699 11.2754H83.1302Z" fill="#2D2B39"/>
<path id="Vector_6" d="M102.542 12.981C101.323 11.511 99.4731 10.734 97.1888 10.734C90.4258 10.734 86.7793 16.7034 86.7793 22.3208C86.7793 27.1802 89.6838 30.2014 94.3612 30.2014C98.5112 30.2014 101.728 27.8868 103.194 23.8503L103.287 23.5905H99.2055L99.1525 23.6933C98.2382 25.499 96.7833 26.4141 94.8249 26.4141C93.6218 26.4141 92.6333 26.0161 91.9628 25.2608C91.189 24.3891 90.8445 23.0869 90.9664 21.4897H103.737L103.933 20.4447C104.453 17.2854 103.97 14.7028 102.539 12.9783L102.542 12.981ZM96.8893 14.5187C97.8831 14.5187 98.6596 14.8029 99.1949 15.3633C99.7991 15.9968 100.104 16.9795 100.099 18.2844H91.7482C92.8135 15.921 94.7163 14.5187 96.8867 14.5187H96.8893Z" fill="#2D2B39"/>
</g>
<g id="Group_4">
<path id="Vector_7" d="M171.166 10.7853C168.622 10.7853 166.12 12.0306 164.493 14.0692L164.636 11.3295H161.188L158.236 26.2082H157.963C157.531 26.2082 156.118 26.1189 155.973 25.9348C155.793 25.7128 155.766 25.3094 155.888 24.6705L157.287 17.7293C157.653 15.8397 157.338 14.2045 156.368 12.9998C155.21 11.5569 153.129 10.7637 150.511 10.7637C146.006 10.7637 142.699 13.1406 141.607 17.1283C141.684 17.2853 141.758 17.4423 141.821 17.6102H145.791L145.828 17.4694C146.541 14.838 148.942 14.4455 150.31 14.4455C151.529 14.4455 152.461 14.7703 152.936 15.3578C153.246 15.7395 153.354 16.2295 153.254 16.7682C152.976 18.2436 151.499 18.4277 149.263 18.7039C149.043 18.7309 148.818 18.7607 148.584 18.7905C145.099 19.2724 140.828 19.8652 140.21 23.8935C140.197 23.9748 140.186 24.056 140.176 24.1399C140.168 24.2238 140.16 24.3077 140.152 24.3917C140.141 24.5352 140.136 24.684 140.133 24.8329C140.133 24.8654 140.131 24.8979 140.131 24.9331C140.131 24.9764 140.136 25.017 140.136 25.0603C140.139 25.2282 140.147 25.396 140.165 25.5585C140.173 25.6343 140.189 25.7047 140.2 25.7805C140.221 25.9158 140.245 26.0512 140.276 26.1811C140.292 26.2461 140.308 26.3084 140.327 26.3706C140.369 26.5222 140.417 26.6684 140.475 26.8146C140.488 26.8498 140.502 26.885 140.515 26.9202C140.592 27.1043 140.679 27.2829 140.783 27.4562L140.867 27.5997C141.858 29.1672 143.796 30.093 146.348 30.093C148.9 30.093 150.832 29.224 152.226 27.5076C152.316 27.8569 152.483 28.1844 152.724 28.4849C153.307 29.2917 154.407 29.7194 155.904 29.7194H157.542L156.187 36.5443H160.534L162.381 27.2802C163.335 29.1536 165.306 30.2527 167.774 30.2527C173.972 30.2527 177.319 24.0722 177.319 18.2572C177.319 13.6495 174.963 10.7853 171.171 10.7853H171.166ZM152.154 22.7213C151.672 25.1172 149.848 26.5466 147.281 26.5466C145.415 26.5141 144.469 25.8454 144.469 24.5622C144.469 22.6645 145.993 22.3261 148.5 21.9985C150.018 21.7982 151.582 21.5897 152.578 20.783L152.154 22.7213ZM167.204 26.4654C165.02 26.4654 163.663 24.7923 163.663 22.0987C163.663 18.4494 165.733 14.57 169.57 14.57C172.414 14.57 173.013 16.8521 173.013 18.7661C173.013 22.4858 170.681 26.4654 167.206 26.4654H167.204Z" fill="#A273FF"/>
<path id="Vector_8" d="M139.375 24.9385C139.375 26.0322 139.643 27.0176 140.136 27.8542L139.768 29.7221H135.421L136.932 22.1772C137.176 20.9969 137.086 20.1251 136.664 19.5918C136.285 19.1127 135.604 18.869 134.648 18.869C132.249 18.869 130.275 20.5069 129.737 22.9379L128.346 29.7221H124L124.357 27.9408C124.426 27.5943 124.071 27.3236 123.766 27.4914C121.002 28.9966 117.528 30.0308 113.574 30.2148C109.13 30.426 105.513 26.8796 105.56 22.3342C105.635 15.726 110.344 10.7637 116.571 10.7637C118.853 10.7637 120.69 11.4784 121.882 12.8238C123.083 14.1829 123.589 16.1429 123.353 18.4954L123.334 18.6687H119.272L119.28 18.4683C119.333 17.131 119.049 16.1239 118.437 15.4769C117.883 14.884 117.054 14.5889 115.97 14.5889C112.13 14.5889 109.832 18.3655 109.832 22.0148C109.832 24.8113 111.285 25.9023 113.672 26.4167C116.778 27.0853 120.912 25.4258 123.883 23.4306C124.914 22.7403 125.616 21.6358 125.865 20.404L128.335 8.04565H132.681L130.887 17.1364C132.398 15.7801 134.406 14.9842 136.381 14.9842C138.148 14.9842 139.55 15.5689 140.435 16.6708C140.571 16.8386 140.69 17.0173 140.801 17.2095C141.008 17.5668 141.169 17.9594 141.286 18.3844C141.432 18.9367 141.503 19.5512 141.493 20.2118C140.226 21.1999 139.375 22.6753 139.375 24.9412V24.9385Z" fill="#A273FF"/>
</g>
</g>
</g>
</g>
</svg>
