<svg width="20" height="20" viewBox="0 0 20 20" fill="none" xmlns="http://www.w3.org/2000/svg">
<g id="air conditioner" clip-path="url(#clip0_182_357)">
<path id="icon" d="M15.3472 0.833313H4.65279C2.54675 0.833313 0.833344 2.54672 0.833344 4.65276V5.41665C0.833344 7.52269 2.54675 9.23609 4.65279 9.23609H15.3472C17.4533 9.23609 19.1667 7.52269 19.1667 5.41665V4.65276C19.1667 2.54672 17.4533 0.833313 15.3472 0.833313ZM17.6389 5.41665C17.6389 6.68012 16.6107 7.70831 15.3472 7.70831H4.65279C3.38932 7.70831 2.36112 6.68012 2.36112 5.41665V4.65276C2.36112 3.38928 3.38932 2.36109 4.65279 2.36109H15.3472C16.6107 2.36109 17.6389 3.38928 17.6389 4.65276V5.41665ZM16.1111 5.41665C16.1111 5.83831 15.7697 6.18053 15.3472 6.18053H4.65279C4.23036 6.18053 3.8889 5.83831 3.8889 5.41665C3.8889 4.99498 4.23036 4.65276 4.65279 4.65276H15.3472C15.7697 4.65276 16.1111 4.99498 16.1111 5.41665ZM10.7639 11.5278V18.4028C10.7639 18.8244 10.4224 19.1666 10 19.1666C9.57758 19.1666 9.23612 18.8244 9.23612 18.4028V11.5278C9.23612 11.1061 9.57758 10.7639 10 10.7639C10.4224 10.7639 10.7639 11.1061 10.7639 11.5278ZM7.70834 11.5278V16.1111C7.70834 17.7962 6.33793 19.1666 4.65279 19.1666C2.96765 19.1666 1.59723 17.7962 1.59723 16.1111C1.59723 14.7827 2.45355 13.5162 3.63452 13.0991C4.03251 12.9585 4.46869 13.1678 4.60925 13.565C4.7498 13.963 4.5405 14.3992 4.14327 14.5398C3.57265 14.7414 3.12501 15.4312 3.12501 16.1111C3.12501 16.9537 3.81022 17.6389 4.65279 17.6389C5.49536 17.6389 6.18057 16.9537 6.18057 16.1111V11.5278C6.18057 11.1061 6.52202 10.7639 6.94445 10.7639C7.36688 10.7639 7.70834 11.1061 7.70834 11.5278ZM18.4028 16.1111C18.4028 17.7962 17.0324 19.1666 15.3472 19.1666C13.6621 19.1666 12.2917 17.7962 12.2917 16.1111V11.5278C12.2917 11.1061 12.6331 10.7639 13.0556 10.7639C13.478 10.7639 13.8195 11.1061 13.8195 11.5278V16.1111C13.8195 16.9537 14.5047 17.6389 15.3472 17.6389C16.1898 17.6389 16.875 16.9537 16.875 16.1111C16.875 15.4312 16.4274 14.7414 15.8567 14.5398C15.4588 14.3992 15.2502 13.963 15.3908 13.565C15.5321 13.1671 15.9675 12.9585 16.3655 13.0991C17.5465 13.5162 18.4028 14.7827 18.4028 16.1111Z" fill="#A273FF"/>
</g>
<defs>
<clipPath id="clip0_182_357">
<rect width="20" height="20" fill="white"/>
</clipPath>
</defs>
</svg>
