<svg width="20" height="20" viewBox="0 0 20 20" fill="none" xmlns="http://www.w3.org/2000/svg">
<g id="fan" clip-path="url(#clip0_182_237)">
<path id="icon" d="M18.3566 8.28524C17.7929 7.65657 17.0168 7.28457 16.1735 7.2395C14.7038 7.16005 13.0104 7.64282 11.8363 8.06677C11.6942 7.93157 11.5361 7.81622 11.3673 7.71539C12.3175 6.72006 13.4824 5.49939 13.5542 4.16719C13.6001 3.32387 13.3144 2.51264 12.7499 1.88397C12.1862 1.2553 11.4108 0.884054 10.5675 0.838222C9.71813 0.791625 8.91302 1.07808 8.28436 1.64182C7.65647 2.20632 7.28447 2.98089 7.2394 3.82421C7.15843 5.29391 7.64196 6.98818 8.06666 8.16226C7.93146 8.30434 7.81612 8.46246 7.71452 8.63128C6.71921 7.68102 5.4978 6.51611 4.16639 6.4443C3.31698 6.39771 2.51187 6.68416 1.88321 7.2479C1.25532 7.81317 0.883315 8.5885 0.838247 9.43182C0.791652 10.2751 1.07734 11.0864 1.64183 11.715C2.20632 12.3437 3.01067 12.7692 4.1534 12.7692C5.5421 12.7692 7.07441 12.3261 8.16214 11.9327C8.30422 12.068 8.46234 12.1833 8.63116 12.2849C7.68091 13.2802 6.51602 14.5009 6.44422 15.8331C6.39839 16.6764 6.68407 17.4876 7.24857 18.1163C7.8123 18.745 8.58838 19.117 9.43168 19.1621C9.48897 19.1651 9.54626 19.1666 9.60431 19.1666C11.2703 19.1666 12.6689 17.8581 12.7598 16.1753C12.8408 14.7056 12.3573 13.0113 11.9326 11.8373C12.0678 11.6952 12.1831 11.5371 12.2847 11.3682C13.28 12.3185 14.5014 13.4834 15.8336 13.5552C15.8909 13.5583 15.9482 13.5598 16.0062 13.5598C17.6722 13.5598 19.0708 12.2513 19.1617 10.5685C19.2083 9.72515 18.9227 8.91391 18.3582 8.28524H18.3566ZM3.90668 11.2346C3.47128 11.2109 3.06948 11.0192 2.77769 10.6937C2.48666 10.3683 2.33923 9.94973 2.36291 9.51355C2.38583 9.07738 2.57756 8.67635 2.90296 8.38531C3.20545 8.11413 3.47815 7.96976 4.08313 7.96976C4.85234 7.96976 5.76133 8.8803 6.56491 9.64723C6.82692 9.89778 7.0958 10.1483 7.36391 10.3813C7.37384 10.4478 7.37842 10.515 7.39294 10.5799C6.37318 10.9313 5.03108 11.2919 3.90668 11.2338V11.2346ZM9.30488 2.77923C9.60737 2.50805 9.99083 2.36139 10.3941 2.36139C10.9266 2.36139 11.3222 2.57986 11.614 2.9045C11.9051 3.22915 12.0525 3.64852 12.0288 4.08469C11.9876 4.85239 11.1183 5.76369 10.3514 6.56729C10.1016 6.8293 9.85028 7.09742 9.6173 7.36554C9.55084 7.37547 9.48362 7.38005 9.4187 7.39456C9.06656 6.37479 8.70449 5.03113 8.76559 3.90747C8.78851 3.4713 8.98024 3.07027 9.30564 2.77923H9.30488ZM11.145 10.0001C11.145 10.6319 10.6309 11.146 9.99923 11.146C9.36752 11.146 8.85344 10.6319 8.85344 10.0001C8.85344 9.36842 9.36752 8.85433 9.99923 8.85433C10.6309 8.85433 11.145 9.36842 11.145 10.0001ZM10.6936 17.2211C10.3682 17.5129 9.94423 17.658 9.51341 17.6366C9.07801 17.6129 8.67622 17.4212 8.38443 17.0958C8.0934 16.7711 7.94597 16.3518 7.96965 15.9156C8.0109 15.1479 8.88017 14.2366 9.64709 13.433C9.89687 13.171 10.1482 12.9029 10.3812 12.6347C10.4476 12.6248 10.5148 12.6202 10.5798 12.6057C10.9319 13.6255 11.294 14.9692 11.2329 16.0928C11.2099 16.529 11.0182 16.9293 10.6928 17.2211H10.6936ZM15.9146 12.0298C15.1461 11.9885 14.2364 11.1192 13.4328 10.3523C13.1708 10.1017 12.9019 9.85119 12.6338 9.61821C12.6239 9.55175 12.6193 9.48453 12.6048 9.4196C13.6245 9.06745 14.9636 8.70461 16.091 8.76572C16.5264 8.7894 16.9282 8.98113 17.22 9.30654C17.511 9.63195 17.6585 10.0506 17.6348 10.4867C17.5867 11.3873 16.8052 12.0748 15.9146 12.0305V12.0298Z" fill="#A273FF"/>
</g>
<defs>
<clipPath id="clip0_182_237">
<rect width="20" height="20" fill="white"/>
</clipPath>
</defs>
</svg>
