<svg width="25" height="25" viewBox="0 0 25 25" fill="none" xmlns="http://www.w3.org/2000/svg">
<g id="home-03">
<path id="Icon" d="M9.84616 21.9749V14.5749C9.84616 14.0148 9.84616 13.7348 9.95516 13.5209C10.051 13.3327 10.204 13.1797 10.3922 13.0838C10.6061 12.9749 10.8861 12.9749 11.4462 12.9749H14.2462C14.8062 12.9749 15.0862 12.9749 15.3002 13.0838C15.4883 13.1797 15.6413 13.3327 15.7372 13.5209C15.8462 13.7348 15.8462 14.0148 15.8462 14.5749V21.9749M2.84616 10.4749L11.8862 3.69485C12.2304 3.43666 12.4026 3.30756 12.5916 3.2578C12.7585 3.21387 12.9339 3.21387 13.1007 3.2578C13.2898 3.30756 13.4619 3.43666 13.8062 3.69485L22.8462 10.4749M4.84616 8.97485V18.7749C4.84616 19.895 4.84617 20.455 5.06415 20.8828C5.2559 21.2592 5.56186 21.5651 5.93818 21.7569C6.36601 21.9749 6.92606 21.9749 8.04616 21.9749H17.6462C18.7663 21.9749 19.3263 21.9749 19.7541 21.7569C20.1305 21.5651 20.4364 21.2592 20.6282 20.8828C20.8462 20.455 20.8462 19.895 20.8462 18.7749V8.97485L14.7662 4.41485C14.0776 3.89847 13.7334 3.64027 13.3553 3.54074C13.0216 3.45289 12.6708 3.45289 12.337 3.54074C11.9589 3.64027 11.6147 3.89847 10.9262 4.41485L4.84616 8.97485Z" stroke="white" stroke-width="2" stroke-linecap="round" stroke-linejoin="round"/>
</g>
</svg>
