<svg width="20" height="20" viewBox="0 0 20 20" fill="none" xmlns="http://www.w3.org/2000/svg">
<g id="refrigerator">
<path id="Vector" d="M13.75 0.833313H6.25C4.18225 0.833313 2.5 2.54672 2.5 4.65276V15.3472C2.5 17.4532 4.18225 19.1666 6.25 19.1666H13.75C15.8177 19.1666 17.5 17.4532 17.5 15.3472V4.65276C17.5 2.54672 15.8177 0.833313 13.75 0.833313ZM6.25 2.36109H13.75C14.9905 2.36109 16 3.38929 16 4.65276V7.70831H13.75V5.41665C13.75 4.99498 13.4148 4.65276 13 4.65276C12.5852 4.65276 12.25 4.99498 12.25 5.41665V7.70831H4V4.65276C4 3.38929 5.0095 2.36109 6.25 2.36109ZM13.75 17.6389H6.25C5.0095 17.6389 4 16.6107 4 15.3472V9.23609H12.25V13.8194C12.25 14.2419 12.5852 14.5833 13 14.5833C13.4148 14.5833 13.75 14.2419 13.75 13.8194V9.23609H16V15.3472C16 16.6107 14.9905 17.6389 13.75 17.6389Z" fill="#A273FF"/>
</g>
</svg>
