<svg width="20" height="20" viewBox="0 0 20 20" fill="none" xmlns="http://www.w3.org/2000/svg">
<g id="screen">
<g id="icon">
<path fill-rule="evenodd" clip-rule="evenodd" d="M4.65277 1.66669H15.3472C16.3598 1.66787 17.3306 2.06103 18.0466 2.75992C18.7627 3.45881 19.1654 4.40638 19.1667 5.39476V12.3684C19.1654 13.3568 18.7627 14.3044 18.0466 15.0033C17.3306 15.7022 16.3598 16.0953 15.3472 16.0965H4.65277C3.64017 16.0953 2.66938 15.7022 1.95336 15.0033C1.23734 14.3044 0.834541 13.3568 0.833328 12.3684V5.39476C0.834541 4.40638 1.23734 3.45881 1.95336 2.75992C2.66938 2.06103 3.64017 1.66787 4.65277 1.66669ZM16.9677 13.9501C17.3974 13.5306 17.6389 12.9617 17.6389 12.3684V5.39476C17.6389 4.80151 17.3974 4.23256 16.9677 3.81307C16.5379 3.39358 15.955 3.15791 15.3472 3.15791H4.65277C4.04498 3.15791 3.46209 3.39358 3.03232 3.81307C2.60255 4.23256 2.36111 4.80151 2.36111 5.39476V12.3684C2.36111 12.9617 2.60255 13.5306 3.03232 13.9501C3.46209 14.3696 4.04498 14.6053 4.65277 14.6053H15.3472C15.955 14.6053 16.5379 14.3696 16.9677 13.9501Z" fill="#A273FF"/>
<path d="M9.23611 16.8392V16.8421H6.11111C5.90851 16.8421 5.71421 16.9207 5.57095 17.0605C5.4277 17.2003 5.34722 17.39 5.34722 17.5877C5.34722 17.7855 5.4277 17.9751 5.57095 18.115C5.71421 18.2548 5.90851 18.3334 6.11111 18.3334H13.8889C14.0915 18.3334 14.2858 18.2548 14.429 18.115C14.5723 17.9751 14.6528 17.7855 14.6528 17.5877C14.6528 17.39 14.5723 17.2003 14.429 17.0605C14.2858 16.9207 14.0915 16.8421 13.8889 16.8421H10.7639V16.8392H9.23611Z" fill="#A273FF"/>
</g>
</g>
</svg>
