<svg width="20" height="18" viewBox="0 0 20 18" fill="none" xmlns="http://www.w3.org/2000/svg">
<path d="M6.5 4C6.5 5.10457 5.60457 6 4.5 6C3.39543 6 2.5 5.10457 2.5 4C2.5 2.89543 3.39543 2 4.5 2C5.60457 2 6.5 2.89543 6.5 4ZM0.5 4C0.5 6.20914 2.29086 8 4.5 8C6.70914 8 8.5 6.20914 8.5 4C8.5 1.79086 6.70914 0 4.5 0C2.29086 0 0.5 1.79086 0.5 4ZM7 13.5C7 12.1193 5.88071 11 4.5 11C3.11929 11 2 12.1193 2 13.5V16H7V13.5ZM9 18H0V13.5C0 11.0147 2.01472 9 4.5 9C6.98528 9 9 11.0147 9 13.5V18ZM17.5 4C17.5 5.10457 16.6046 6 15.5 6C14.3954 6 13.5 5.10457 13.5 4C13.5 2.89543 14.3954 2 15.5 2C16.6046 2 17.5 2.89543 17.5 4ZM11.5 4C11.5 6.20914 13.2909 8 15.5 8C17.7091 8 19.5 6.20914 19.5 4C19.5 1.79086 17.7091 0 15.5 0C13.2909 0 11.5 1.79086 11.5 4ZM18 13.5C18 12.1193 16.8807 11 15.5 11C14.1193 11 13 12.1193 13 13.5V16H18V13.5ZM11 16V13.5C11 11.0147 13.0147 9 15.5 9C17.9853 9 20 11.0147 20 13.5V18H11V16Z" fill="#A273FF"/>
</svg>
