<svg width="20" height="20" viewBox="0 0 20 20" fill="none" xmlns="http://www.w3.org/2000/svg">
<g id="washing machine">
<path id="icon" d="M13.75 0.833313H6.25C4.18225 0.833313 2.5 2.54672 2.5 4.65276V15.3472C2.5 17.4532 4.18225 19.1666 6.25 19.1666H13.75C15.8177 19.1666 17.5 17.4532 17.5 15.3472V4.65276C17.5 2.54672 15.8177 0.833313 13.75 0.833313ZM16 15.3472C16 16.6107 14.9905 17.6389 13.75 17.6389H6.25C5.0095 17.6389 4 16.6107 4 15.3472V4.65276C4 3.38929 5.0095 2.36109 6.25 2.36109H13.75C14.9905 2.36109 16 3.38929 16 4.65276V15.3472ZM5.875 5.41665C5.254 5.41665 4.75 4.90331 4.75 4.27081C4.75 3.63831 5.254 3.12498 5.875 3.12498C6.496 3.12498 7 3.63831 7 4.27081C7 4.90331 6.496 5.41665 5.875 5.41665ZM7.75 4.27081C7.75 3.63831 8.254 3.12498 8.875 3.12498C9.496 3.12498 10 3.63831 10 4.27081C10 4.90331 9.496 5.41665 8.875 5.41665C8.254 5.41665 7.75 4.90331 7.75 4.27081ZM10 6.94442C7.51825 6.94442 5.5 9.00005 5.5 11.5278C5.5 14.0555 7.51825 16.1111 10 16.1111C12.4818 16.1111 14.5 14.0555 14.5 11.5278C14.5 9.00005 12.4818 6.94442 10 6.94442ZM10 8.4722C11.545 8.4722 12.8057 9.67227 12.9677 11.2023C12.7622 11.3498 12.4367 11.5278 12.046 11.5278C11.4167 11.5278 10.675 11.0824 10.444 10.9113C10.3187 10.8181 9.18775 9.99998 7.95475 9.99998C7.7515 9.99998 7.56325 10.0267 7.38325 10.0641C7.894 9.12074 8.869 8.4722 10 8.4722ZM10 14.5833C8.455 14.5833 7.19425 13.3832 7.03225 11.8532C7.23775 11.7057 7.56325 11.5278 7.954 11.5278C8.58325 11.5278 9.325 11.9731 9.556 12.1442C9.68125 12.2374 10.8123 13.0555 12.0452 13.0555C12.2485 13.0555 12.4368 13.0288 12.6168 12.9914C12.106 13.9348 11.131 14.5833 10 14.5833Z" fill="#A273FF"/>
</g>
</svg>
